G75*
G70*
%OFA0B0*%
%FSLAX24Y24*%
%IPPOS*%
%LPD*%
%AMOC8*
5,1,8,0,0,1.08239X$1,22.5*
%
%ADD10C,0.0000*%
%ADD11C,0.0520*%
%ADD12C,0.0740*%
%ADD13R,0.0790X0.0590*%
%ADD14R,0.0790X0.1500*%
%ADD15R,0.0433X0.0433*%
%ADD16R,0.0394X0.0433*%
%ADD17C,0.0515*%
%ADD18C,0.1122*%
%ADD19R,0.0740X0.0740*%
%ADD20C,0.0594*%
%ADD21C,0.0650*%
%ADD22R,0.0433X0.0394*%
%ADD23C,0.0200*%
%ADD24C,0.0400*%
%ADD25C,0.0357*%
%ADD26C,0.0100*%
%ADD27C,0.0300*%
D10*
X000907Y000101D02*
X000907Y019786D01*
X020592Y019786D01*
X020592Y000101D01*
X000907Y000101D01*
D11*
X008957Y001631D02*
X009477Y001631D01*
X009477Y002631D02*
X008957Y002631D01*
X008957Y003631D02*
X009477Y003631D01*
X009477Y004631D02*
X008957Y004631D01*
X008957Y005631D02*
X009477Y005631D01*
X009477Y006631D02*
X008957Y006631D01*
X008957Y007631D02*
X009477Y007631D01*
X009477Y008631D02*
X008957Y008631D01*
X008957Y009631D02*
X009477Y009631D01*
X009477Y010631D02*
X008957Y010631D01*
X008957Y011631D02*
X009477Y011631D01*
X009477Y012631D02*
X008957Y012631D01*
X008957Y013631D02*
X009477Y013631D01*
X009477Y014631D02*
X008957Y014631D01*
X011957Y014631D02*
X012477Y014631D01*
X012477Y013631D02*
X011957Y013631D01*
X011957Y012631D02*
X012477Y012631D01*
X012477Y011631D02*
X011957Y011631D01*
X011957Y010631D02*
X012477Y010631D01*
X012477Y009631D02*
X011957Y009631D01*
X011957Y008631D02*
X012477Y008631D01*
X012477Y007631D02*
X011957Y007631D01*
X011957Y006631D02*
X012477Y006631D01*
X012477Y005631D02*
X011957Y005631D01*
X011957Y004631D02*
X012477Y004631D01*
X012477Y003631D02*
X011957Y003631D01*
X011957Y002631D02*
X012477Y002631D01*
X012477Y001631D02*
X011957Y001631D01*
D12*
X007817Y001471D03*
X006817Y001471D03*
X005817Y001471D03*
X004817Y001471D03*
X003817Y001471D03*
X001407Y001101D03*
X001407Y002101D03*
X001407Y003101D03*
X001407Y006101D03*
X001407Y007101D03*
X001407Y008101D03*
X001407Y011101D03*
X001407Y012101D03*
X001407Y013101D03*
X019467Y012841D03*
X019907Y008101D03*
X019907Y007101D03*
X019907Y006101D03*
X019907Y003101D03*
X019907Y002101D03*
X019907Y001101D03*
D13*
X008597Y016361D03*
X008597Y017261D03*
X008597Y018161D03*
D14*
X006117Y017251D03*
D15*
X006972Y015491D03*
X007642Y015491D03*
X010457Y016406D03*
X010457Y017075D03*
X011732Y017081D03*
X012402Y017081D03*
X013192Y017071D03*
X013862Y017071D03*
X013487Y014405D03*
X013487Y013736D03*
X014802Y013431D03*
X015472Y013431D03*
X016672Y013421D03*
X017342Y013421D03*
X013447Y009105D03*
X013447Y008436D03*
X017567Y007585D03*
X017567Y006916D03*
X016352Y001991D03*
X015682Y001991D03*
X014942Y001991D03*
X014272Y001991D03*
X007172Y002521D03*
X006502Y002521D03*
X009607Y018156D03*
X009607Y018825D03*
D16*
X009607Y017085D03*
X009607Y016416D03*
D17*
X003587Y015991D03*
X002917Y015991D03*
X002587Y016611D03*
X003277Y016611D03*
X002217Y015991D03*
D18*
X001480Y018091D03*
X004354Y018091D03*
D19*
X001407Y014101D03*
X001407Y009101D03*
X001407Y004101D03*
X019907Y004101D03*
X019907Y009101D03*
D20*
X015937Y008197D03*
X015937Y010165D03*
X005337Y012047D03*
X005337Y014015D03*
D21*
X007237Y007241D03*
X007237Y006241D03*
X007237Y005241D03*
D22*
X013722Y006631D03*
X014392Y006631D03*
D23*
X014947Y006631D01*
X015167Y006411D01*
X015636Y006916D02*
X013447Y009105D01*
X012922Y009631D01*
X012217Y009631D01*
X012217Y010631D02*
X015471Y010631D01*
X015937Y010165D01*
X017359Y008743D01*
X017567Y008535D01*
X017567Y007585D01*
X017567Y006916D02*
X015636Y006916D01*
X013722Y006631D02*
X012217Y006631D01*
X010647Y007271D02*
X010647Y009641D01*
X010647Y014531D01*
X010637Y014541D01*
X011237Y015221D02*
X010837Y015621D01*
X011237Y015221D02*
X011237Y002611D01*
X012217Y001631D01*
X012747Y001101D01*
X019907Y001101D01*
X019437Y002631D02*
X019907Y003101D01*
X019437Y002631D02*
X014477Y002631D01*
X014272Y002426D01*
X014272Y002495D02*
X014137Y002631D01*
X014477Y002631D01*
X014272Y002495D02*
X014272Y001991D01*
X014137Y002631D02*
X012217Y002631D01*
X012217Y003631D02*
X019437Y003631D01*
X019907Y004101D01*
X018437Y004631D02*
X019907Y006101D01*
X019907Y007101D02*
X019001Y007101D01*
X017567Y008535D01*
X019907Y008101D02*
X016377Y011631D01*
X012217Y011631D01*
X012217Y012631D02*
X014657Y012631D01*
X014802Y012776D01*
X014802Y012815D02*
X014987Y012631D01*
X016377Y012631D01*
X019907Y009101D01*
X017557Y012801D02*
X017342Y013016D01*
X017342Y013421D01*
X016672Y013421D02*
X016652Y013441D01*
X015472Y013431D01*
X014802Y013431D02*
X014802Y012815D01*
X014657Y012631D02*
X014987Y012631D01*
X013487Y013736D02*
X012322Y013736D01*
X012217Y013631D01*
X012442Y014405D02*
X012217Y014631D01*
X011732Y015115D01*
X011732Y017081D01*
X012402Y017081D02*
X013182Y017081D01*
X013187Y017080D01*
X013191Y017076D01*
X013192Y017071D01*
X013862Y017071D02*
X014387Y017071D01*
X014397Y017061D01*
X014957Y016591D02*
X014067Y015701D01*
X012207Y015701D01*
X012442Y014405D02*
X013487Y014405D01*
X014957Y016591D02*
X014957Y017621D01*
X014422Y018156D01*
X009607Y018156D01*
X009602Y018161D01*
X008597Y018161D01*
X009607Y018825D02*
X010212Y018825D01*
X010317Y018931D01*
X007642Y015491D02*
X006117Y017015D01*
X006117Y017251D01*
X006813Y015491D02*
X006972Y015491D01*
X006813Y015491D02*
X005337Y014015D01*
X005251Y014101D01*
X001407Y014101D01*
X001407Y013101D02*
X008687Y013101D01*
X009217Y013631D01*
X010177Y013671D02*
X009217Y014631D01*
X005953Y014631D01*
X005337Y014015D01*
X004877Y012631D02*
X004347Y012101D01*
X001407Y012101D01*
X001407Y011101D02*
X004007Y011101D01*
X005677Y011101D01*
X006207Y011631D01*
X009217Y011631D01*
X009217Y012631D02*
X004877Y012631D01*
X003107Y010631D02*
X002937Y010631D01*
X001407Y009101D01*
X001407Y008101D02*
X002937Y009631D01*
X009217Y009631D01*
X009217Y010631D02*
X003107Y010631D01*
X002937Y008631D02*
X001407Y007101D01*
X001407Y006101D02*
X002877Y004631D01*
X009217Y004631D01*
X009217Y005631D02*
X007627Y005631D01*
X007237Y005241D01*
X007847Y006631D02*
X007237Y007241D01*
X007847Y006631D02*
X009217Y006631D01*
X009217Y008631D02*
X002937Y008631D01*
X001407Y004101D02*
X001877Y003631D01*
X009217Y003631D01*
X007747Y003101D02*
X001407Y003101D01*
X001407Y001101D02*
X002057Y000451D01*
X006167Y000451D01*
X006817Y001101D01*
X006817Y001471D01*
X007172Y001825D01*
X007172Y002521D01*
X007667Y002521D01*
X007777Y002411D01*
X007747Y003101D02*
X009217Y001631D01*
X009807Y000881D02*
X008147Y000881D01*
X007817Y001211D01*
X007817Y001471D01*
X006502Y002521D02*
X005817Y001835D01*
X005817Y001471D01*
X009807Y000881D02*
X010177Y001251D01*
X010177Y013671D01*
X013447Y008436D02*
X013447Y008261D01*
X013827Y007881D01*
X012217Y004631D02*
X018437Y004631D01*
X017087Y001991D02*
X016352Y001991D01*
X015682Y001991D02*
X014942Y001991D01*
X017087Y001991D02*
X017177Y001901D01*
D24*
X011177Y016401D02*
X011172Y016406D01*
X010457Y016406D01*
X010412Y016361D01*
X009707Y016361D01*
X009652Y016416D01*
X009607Y016416D01*
X009707Y016361D02*
X008597Y016361D01*
X008597Y017261D02*
X009537Y017261D01*
X009607Y017191D01*
X009607Y017085D01*
X009537Y017261D02*
X010467Y017261D01*
X010457Y017251D01*
X010457Y017075D01*
X010467Y017261D02*
X011552Y017261D01*
X011732Y017081D01*
D25*
X011177Y016401D03*
X010837Y015621D03*
X010637Y014541D03*
X012207Y015701D03*
X014397Y017061D03*
X010317Y018931D03*
X017557Y012801D03*
X013827Y007881D03*
X015167Y006411D03*
X010647Y007271D03*
X010647Y009641D03*
X004007Y011101D03*
X003107Y010631D03*
X007777Y002411D03*
X017177Y001901D03*
D26*
X006527Y016501D02*
X005797Y016501D01*
X005774Y016504D01*
X005752Y016513D01*
X005733Y016527D01*
X005719Y016546D01*
X005710Y016567D01*
X005707Y016591D01*
X005707Y017931D01*
X005709Y017946D01*
X005715Y017961D01*
X005725Y017973D01*
X005737Y017983D01*
X005752Y017989D01*
X005767Y017991D01*
X006577Y017991D01*
X007037Y017531D01*
X008947Y017531D01*
X008963Y017528D01*
X008976Y017521D01*
X008988Y017510D01*
X008995Y017496D01*
X008997Y017481D01*
X008997Y017041D01*
X008995Y017025D01*
X008988Y017011D01*
X008976Y017000D01*
X008963Y016993D01*
X008947Y016991D01*
X007017Y016991D01*
X006527Y016501D01*
X006584Y016558D02*
X005714Y016558D01*
X005707Y016656D02*
X006682Y016656D01*
X006781Y016755D02*
X005707Y016755D01*
X005707Y016853D02*
X006879Y016853D01*
X006978Y016952D02*
X005707Y016952D01*
X005707Y017050D02*
X008997Y017050D01*
X008997Y017149D02*
X005707Y017149D01*
X005707Y017247D02*
X008997Y017247D01*
X008997Y017346D02*
X005707Y017346D01*
X005707Y017444D02*
X008997Y017444D01*
X007025Y017543D02*
X005707Y017543D01*
X005707Y017641D02*
X006926Y017641D01*
X006828Y017740D02*
X005707Y017740D01*
X005707Y017839D02*
X006729Y017839D01*
X006631Y017937D02*
X005708Y017937D01*
D27*
X005267Y017671D02*
X005267Y018451D01*
X005707Y018891D01*
X007867Y018891D01*
X008597Y018161D01*
X005267Y017671D02*
X003587Y015991D01*
M02*
