%
M48
M72
T01C0.0197
T02C0.0315
T03C0.0320
T04C0.0394
T05C0.0400
T06C0.0433
T07C0.0748
%
T01
X7777Y2411
X10647Y7271
X10647Y9641
X13827Y7881
X15167Y6411
X17177Y1901
X17557Y12801
X14397Y17061
X12207Y15701
X11177Y16401
X10837Y15621
X10637Y14541
X10317Y18931
X4007Y11101
X3107Y10631
T02
X2917Y15991
X3587Y15991
X3277Y16611
X2587Y16611
X2217Y15991
T03
X9217Y14631
X9217Y13631
X9217Y12631
X9217Y11631
X9217Y10631
X9217Y9631
X9217Y8631
X9217Y7631
X9217Y6631
X9217Y5631
X9217Y4631
X9217Y3631
X9217Y2631
X9217Y1631
X12217Y1631
X12217Y2631
X12217Y3631
X12217Y4631
X12217Y5631
X12217Y6631
X12217Y7631
X12217Y8631
X12217Y9631
X12217Y10631
X12217Y11631
X12217Y12631
X12217Y13631
X12217Y14631
T04
X15937Y10165
X15937Y8197
X5337Y12047
X5337Y14015
T05
X1407Y1101
X1407Y2101
X1407Y3101
X1407Y4101
X1407Y6101
X1407Y7101
X1407Y8101
X1407Y9101
X1407Y11101
X1407Y12101
X1407Y13101
X1407Y14101
X3817Y1471
X4817Y1471
X5817Y1471
X6817Y1471
X7817Y1471
X19907Y1101
X19907Y2101
X19907Y3101
X19907Y4101
X19907Y6101
X19907Y7101
X19907Y8101
X19907Y9101
X19467Y12841
T06
X7237Y7241
X7237Y6241
X7237Y5241
T07
X4354Y18091
X1480Y18091
M30
