G75*
G70*
%OFA0B0*%
%FSLAX24Y24*%
%IPPOS*%
%LPD*%
%AMOC8*
5,1,8,0,0,1.08239X$1,22.5*
%
%ADD10C,0.0600*%
%ADD11C,0.0820*%
%ADD12C,0.0595*%
%ADD13C,0.1202*%
%ADD14R,0.0820X0.0820*%
%ADD15C,0.0674*%
%ADD16C,0.0730*%
%ADD17C,0.0437*%
D10*
X008957Y001631D02*
X009477Y001631D01*
X009477Y002631D02*
X008957Y002631D01*
X008957Y003631D02*
X009477Y003631D01*
X009477Y004631D02*
X008957Y004631D01*
X008957Y005631D02*
X009477Y005631D01*
X009477Y006631D02*
X008957Y006631D01*
X008957Y007631D02*
X009477Y007631D01*
X009477Y008631D02*
X008957Y008631D01*
X008957Y009631D02*
X009477Y009631D01*
X009477Y010631D02*
X008957Y010631D01*
X008957Y011631D02*
X009477Y011631D01*
X009477Y012631D02*
X008957Y012631D01*
X008957Y013631D02*
X009477Y013631D01*
X009477Y014631D02*
X008957Y014631D01*
X011957Y014631D02*
X012477Y014631D01*
X012477Y013631D02*
X011957Y013631D01*
X011957Y012631D02*
X012477Y012631D01*
X012477Y011631D02*
X011957Y011631D01*
X011957Y010631D02*
X012477Y010631D01*
X012477Y009631D02*
X011957Y009631D01*
X011957Y008631D02*
X012477Y008631D01*
X012477Y007631D02*
X011957Y007631D01*
X011957Y006631D02*
X012477Y006631D01*
X012477Y005631D02*
X011957Y005631D01*
X011957Y004631D02*
X012477Y004631D01*
X012477Y003631D02*
X011957Y003631D01*
X011957Y002631D02*
X012477Y002631D01*
X012477Y001631D02*
X011957Y001631D01*
D11*
X001407Y001101D03*
X001407Y002101D03*
X001407Y003101D03*
X003817Y001471D03*
X004817Y001471D03*
X005817Y001471D03*
X006817Y001471D03*
X007817Y001471D03*
X001407Y006101D03*
X001407Y007101D03*
X001407Y008101D03*
X001407Y011101D03*
X001407Y012101D03*
X001407Y013101D03*
X019467Y012841D03*
X019907Y008101D03*
X019907Y007101D03*
X019907Y006101D03*
X019907Y003101D03*
X019907Y002101D03*
X019907Y001101D03*
D12*
X003587Y015991D03*
X002917Y015991D03*
X002587Y016611D03*
X003277Y016611D03*
X002217Y015991D03*
D13*
X001480Y018091D03*
X004354Y018091D03*
D14*
X001407Y014101D03*
X001407Y009101D03*
X001407Y004101D03*
X019907Y004101D03*
X019907Y009101D03*
D15*
X015937Y008197D03*
X015937Y010165D03*
X005337Y012047D03*
X005337Y014015D03*
D16*
X007237Y007241D03*
X007237Y006241D03*
X007237Y005241D03*
D17*
X007777Y002411D03*
X010647Y007271D03*
X010647Y009641D03*
X013827Y007881D03*
X015167Y006411D03*
X017177Y001901D03*
X017557Y012801D03*
X014397Y017061D03*
X012207Y015701D03*
X011177Y016401D03*
X010837Y015621D03*
X010637Y014541D03*
X010317Y018931D03*
X004007Y011101D03*
X003107Y010631D03*
M02*
